<svg xmlns="http://www.w3.org/2000/svg" viewBox="0 0 48 48">
  <!-- sun -->
  <g stroke="#f6a821" stroke-width="2.6" stroke-linecap="round">
    <line x1="17" y1="4" x2="17" y2="8.5"/>
    <line x1="17" y1="25.5" x2="17" y2="30"/>
    <line x1="4" y1="17" x2="8.5" y2="17"/>
    <line x1="25.5" y1="17" x2="30" y2="17"/>
    <line x1="7.8" y1="7.8" x2="11" y2="11"/>
    <line x1="23" y1="23" x2="26.2" y2="26.2"/>
    <line x1="26.2" y1="7.8" x2="23" y2="11"/>
    <line x1="11" y1="23" x2="7.8" y2="26.2"/>
  </g>
  <circle cx="17" cy="17" r="6.5" fill="#fbc02d"/>
  <!-- cloud -->
  <path fill="#7fb2d9" d="M35.5 24.5a7 7 0 0 0-13.2-2.3A6.2 6.2 0 0 0 14 28a6.2 6.2 0 0 0 6.2 6.2h15a5.6 5.6 0 0 0 .3-11.2z"/>
  <path fill="#a7cdea" d="M35.2 25.6a6 6 0 0 0-11.6-1.6 5.2 5.2 0 0 0-6.8 5 5.2 5.2 0 0 0 5.2 5.2h13.4a4.3 4.3 0 0 0-.2-8.6z"/>
</svg>
